<?xml version="1.0" standalone="no"?>
<!DOCTYPE svg PUBLIC "-//W3C//DTD SVG 20010904//EN"
 "http://www.w3.org/TR/2001/REC-SVG-20010904/DTD/svg10.dtd">
<svg version="1.0" xmlns="http://www.w3.org/2000/svg"
 width="140.000000pt" height="146.000000pt" viewBox="0 0 140.000000 146.000000"
 preserveAspectRatio="xMidYMid meet">

<g transform="translate(0.000000,146.000000) scale(0.100000,-0.100000)"
fill="#de492b" stroke="none">
<path d="M570 1439 c-293 -60 -493 -266 -552 -566 l-21 -113 22 -112 c31 -159
82 -263 182 -368 l42 -45 7 -103 c4 -56 10 -105 13 -109 4 -3 19 3 34 13 15
10 51 32 80 50 l52 31 88 -24 c262 -73 544 16 720 228 70 86 120 197 145 327
l21 112 -21 113 c-59 304 -260 507 -559 567 -121 24 -132 24 -253 -1z m281
-235 c69 -20 136 -63 191 -122 94 -101 122 -182 116 -336 -3 -90 -7 -110 -35
-167 -59 -119 -141 -192 -269 -239 -52 -18 -78 -21 -161 -18 -91 3 -106 6
-174 40 -95 47 -177 130 -222 225 -28 59 -32 80 -35 167 -3 82 0 108 18 160
53 145 158 249 293 291 60 19 212 18 278 -1z"/>
<path d="M517 962 c-26 -26 -47 -56 -47 -67 0 -10 18 -55 39 -100 51 -105 141
-193 254 -247 42 -21 83 -38 90 -38 7 0 37 24 66 54 l53 53 -60 37 c-70 42
-78 43 -109 14 -19 -18 -27 -19 -47 -10 -36 16 -94 70 -128 119 l-30 45 21 22
c12 12 21 28 21 34 0 18 -59 132 -68 132 -4 0 -29 -22 -55 -48z"/>
</g>
</svg>
