<svg version="1.0" xmlns="http://www.w3.org/2000/svg" width="140" height="146" viewBox="0 0 1400 1460"><path d="M0 730V0h1400v1460H0V730z" fill="#ee4b43"/><path d="M0 730V0h1400v1460H0V730zm349 669l80-51 48 15c201 65 414 41 588-68 73-45 167-134 211-198 42-62 93-179 99-227 10-77 17-322 8-317-4 3-8-10-9-29 0-19-22-76-49-131-40-82-62-112-134-184s-102-94-183-134c-87-43-107-49-195-57-140-12-259-7-321 13C320 89 160 224 81 379c-36 70-45 100-58 190-9 66-12 136-8 186 4 44 8 97 9 117 3 39 58 163 100 225 14 21 46 58 70 83l45 46 7 112c4 62 10 112 15 112 4 0 44-23 88-51z" fill="#f0645d"/><path d="M1 1128V795l19 71c30 116 94 232 173 313l46 47 7 112c4 62 10 112 15 112 4 0 44-23 88-51l80-51 48 15c201 65 414 41 588-68 70-43 167-133 206-190 35-52 88-162 99-207 6-24 15-56 20-73 5-18 8 106 9 303l1 332H0l1-332zm1389-491c0-274-265-574-550-622-19-3-36-8-39-11-2-2 131-4 297-4h302v355c0 195-2 355-5 355s-5-33-5-73zM1 303L0 0h357c336 0 448 5 268 11-151 5-287 71-416 199-71 70-94 102-132 179-32 63-47 106-47 133 0 22-4 37-9 33-5-3-12 7-14 22-2 16-5-108-6-274z" fill="#fce1e0"/><g fill="#fffefe"><path d="M0 1155c0-197 4-305 10-305s9 3 8 8c-6 21 65 179 111 246 10 16 40 50 64 75l46 47 7 112c4 62 10 112 15 112 4 0 44-23 88-51l80-51 48 15c201 65 414 41 588-68 69-43 167-133 206-190 36-52 99-188 99-213 0-15 4-21 12-16s9 2 5-9c-3-10-2-17 3-17 6 0 10 115 10 305v305H0v-305z"/><path d="M588 1120c-149-46-253-150-305-303-81-240 77-506 336-567 116-27 267 6 361 81 219 173 241 476 50 670-119 121-291 167-442 119zm334-217c26-26 48-53 48-59 0-14-110-84-131-84-7 0-23 10-36 22-19 17-27 19-46 11-37-17-85-62-118-110l-31-45 21-22c27-28 26-36-3-94-49-94-48-94-105-37-64 62-66 92-16 192 45 89 155 197 246 242 90 43 113 41 171-16zm468-266c0-214-161-452-378-560-51-25-108-49-127-53-89-16-14-24 240-24h275v355c0 195-2 355-5 355s-5-33-5-73zM20 535c-2-30-2-30-10-5-4 14-8-98-9-252L0 0h357c336 0 448 5 268 11-151 5-288 71-416 199-96 96-166 214-179 304-5 37-8 43-10 21z"/></g></svg>