<svg version="1.0" xmlns="http://www.w3.org/2000/svg" width="186.667" height="194.667" viewBox="0 0 140 146"><g fill="#de492b"><path d="M57 2.1C27.7 8.1 7.7 28.7 1.8 58.7L-.3 70l2.2 11.2C5 97.1 10.1 107.5 20.1 118l4.2 4.5.7 10.3c.4 5.6 1 10.5 1.3 10.9.4.3 1.9-.3 3.4-1.3s5.1-3.2 8-5l5.2-3.1 8.8 2.4c26.2 7.3 54.4-1.6 72-22.8 7-8.6 12-19.7 14.5-32.7l2.1-11.2-2.1-11.3C132.3 28.3 112.2 8 82.3 2 70.2-.4 69.1-.4 57 2.1zm28.1 23.5c6.9 2 13.6 6.3 19.1 12.2 9.4 10.1 12.2 18.2 11.6 33.6-.3 9-.7 11-3.5 16.7-5.9 11.9-14.1 19.2-26.9 23.9-5.2 1.8-7.8 2.1-16.1 1.8-9.1-.3-10.6-.6-17.4-4-9.5-4.7-17.7-13-22.2-22.5-2.8-5.9-3.2-8-3.5-16.7-.3-8.2 0-10.8 1.8-16 5.3-14.5 15.8-24.9 29.3-29.1 6-1.9 21.2-1.8 27.8.1z"/><path d="M51.7 49.8c-2.6 2.6-4.7 5.6-4.7 6.7 0 1 1.8 5.5 3.9 10C56 77 65 85.8 76.3 91.2c4.2 2.1 8.3 3.8 9 3.8.7 0 3.7-2.4 6.6-5.4l5.3-5.3-6-3.7c-7-4.2-7.8-4.3-10.9-1.4-1.9 1.8-2.7 1.9-4.7 1-3.6-1.6-9.4-7-12.8-11.9l-3-4.5 2.1-2.2c1.2-1.2 2.1-2.8 2.1-3.4 0-1.8-5.9-13.2-6.8-13.2-.4 0-2.9 2.2-5.5 4.8z"/></g></svg>